# The Great Editor v0.0.1
mtllib floor_2.mtl
o floor_2
v 0.4067112745905938 -4.3443868167408946 0
v 0.4067112745905938 -4.3443868167408946 -0.1
v 10.852455967641015 -4.294205916767216 0
v 10.852455967641015 -4.294205916767216 -0.1
v 10.873167888120348 -16.670832925667597 0
v 10.873167888120348 -16.670832925667597 -0.1
v 0.5012678331684481 -16.73390342936001 0
v 0.5012678331684481 -16.73390342936001 -0.1
vt 0.4067112745905938 -4.3443868167408946 0
vt 10.852455967641015 -4.294205916767216 0
vt 10.873167888120348 -16.670832925667597 0
vt 0.5012678331684481 -16.73390342936001 0
vn 0 0 1
vn 0 0 -1
usemtl floor_2
s off
f 1/1/1 7/4/1 5/3/1
f 6/3/2 8/4/2 2/1/2
f 1/1/1 5/3/1 3/2/1
f 4/2/2 6/3/2 2/1/2
